<svg width="1200" height="630" viewBox="0 0 1200 630"
     xmlns="http://www.w3.org/2000/svg" role="img" aria-label="نور القلوب">
  <defs>
    <linearGradient id="bg" x1="0" y1="0" x2="1" y2="1">
      <stop offset="0%" stop-color="#070b14"/>
      <stop offset="100%" stop-color="#0b1220"/>
    </linearGradient>

    <radialGradient id="glow1" cx="20%" cy="15%" r="60%">
      <stop offset="0%" stop-color="#7c5cff" stop-opacity="0.32"/>
      <stop offset="70%" stop-color="#7c5cff" stop-opacity="0"/>
    </radialGradient>

    <radialGradient id="glow2" cx="90%" cy="20%" r="55%">
      <stop offset="0%" stop-color="#22d3ee" stop-opacity="0.22"/>
      <stop offset="70%" stop-color="#22d3ee" stop-opacity="0"/>
    </radialGradient>

    <linearGradient id="g1" x1="0" y1="0" x2="1" y2="1">
      <stop offset="0%" stop-color="#7c5cff"/>
      <stop offset="100%" stop-color="#22d3ee"/>
    </linearGradient>

    <filter id="soft" x="-20%" y="-20%" width="140%" height="140%">
      <feGaussianBlur stdDeviation="18" result="b"/>
      <feColorMatrix in="b" type="matrix"
        values="1 0 0 0 0
                0 1 0 0 0
                0 0 1 0 0
                0 0 0 0.55 0"/>
      <feMerge>
        <feMergeNode/>
        <feMergeNode in="SourceGraphic"/>
      </feMerge>
    </filter>
  </defs>

  <!-- Background -->
  <rect width="1200" height="630" fill="url(#bg)"/>
  <rect width="1200" height="630" fill="url(#glow1)"/>
  <rect width="1200" height="630" fill="url(#glow2)"/>

  <!-- Decorative rings -->
  <circle cx="980" cy="120" r="120" fill="none" stroke="rgba(255,255,255,0.08)" stroke-width="2"/>
  <circle cx="980" cy="120" r="170" fill="none" stroke="rgba(124,92,255,0.12)" stroke-width="2"/>
  <circle cx="240" cy="520" r="140" fill="none" stroke="rgba(34,211,238,0.10)" stroke-width="2"/>

  <!-- Icon block -->
  <g filter="url(#soft)">
    <rect x="88" y="92" width="210" height="210" rx="44" fill="rgba(255,255,255,0.06)" stroke="rgba(255,255,255,0.12)"/>
    <circle cx="193" cy="197" r="86" fill="url(#g1)" opacity="0.22"/>
    <!-- Heart -->
    <path d="
      M193 250
      C162 225, 125 203, 125 170
      C125 145, 145 126, 170 126
      C182 126, 193 133, 200 143
      C207 133, 218 126, 230 126
      C255 126, 275 145, 275 170
      C275 203, 238 225, 207 250
      Z"
      fill="url(#g1)" opacity="0.95"/>
    <!-- Witness dot -->
    <circle cx="193" cy="168" r="7" fill="#ffffff"/>
  </g>

  <!-- Title -->
  <text x="340" y="165" font-size="52" font-family="Tajawal, Arial" fill="#eaf0ff" font-weight="900">
    نور القلوب
  </text>

  <!-- Subtitle -->
  <text x="340" y="225" font-size="28" font-family="Tajawal, Arial" fill="#b7c3e6" font-weight="700">
    سجل الشهادة الصامتة — وقائع بلا تحريض ولا تشهير
  </text>

  <!-- Quote -->
  <text x="340" y="320" font-size="44" font-family="Tajawal, Arial" fill="#eaf0ff" font-weight="900">
    هنا لا نصرخ… هنا نشهد
  </text>

  <!-- Footer line -->
  <rect x="340" y="368" width="760" height="2" fill="rgba(255,255,255,0.10)"/>
  <text x="340" y="420" font-size="22" font-family="Tajawal, Arial" fill="#b7c3e6" font-weight="600">
    منصة توثيق إنساني أخلاقي — فلسطين بداية… والعدل طريق
  </text>

  <!-- URL placeholder -->
  <text x="340" y="510" font-size="20" font-family="Tajawal, Arial" fill="rgba(234,240,255,0.85)" font-weight="700">
    Light_of_hearts.netlify.app
  </text>

  <!-- Gradient accent -->
  <rect x="1080" y="480" width="32" height="32" rx="12" fill="url(#g1)"/>
</svg>